<!DOCTYPE svg PUBLIC "-//W3C//DTD SVG 1.1//EN" "http://www.w3.org/Graphics/SVG/1.1/DTD/svg11.dtd">
<!-- Uploaded to: SVG Repo, www.svgrepo.com, Transformed by: SVG Repo Mixer Tools -->
<svg fill="#444444" height="800px" width="800px" version="1.1" id="Capa_1" xmlns="http://www.w3.org/2000/svg" xmlns:xlink="http://www.w3.org/1999/xlink" viewBox="0 0 365.89 365.89" xml:space="preserve" stroke="#444444">
<g id="SVGRepo_bgCarrier" stroke-width="0"/>
<g id="SVGRepo_tracerCarrier" stroke-linecap="round" stroke-linejoin="round"/>
<g id="SVGRepo_iconCarrier"> <g id="XMLID_810_"> <path id="XMLID_811_" d="M309.825,0c-10.129,0-19.609,3.853-26.769,10.733C275.896,3.853,266.416,0,256.287,0 c-21.353,0-38.725,17.372-38.725,38.725c0,37.929,45.234,68.196,59.099,76.569c1.936,1.169,4.153,1.787,6.414,1.787c0,0,0,0,0,0 c2.242,0,4.445-0.609,6.37-1.761c13.865-8.296,59.104-38.337,59.104-76.595C348.549,17.372,331.178,0,309.825,0z"/> <path id="XMLID_812_" d="M145.809,98.143c-70.838,0-128.469,57.631-128.469,128.469v44.898c0,61.744,44.424,94.38,128.469,94.38 s128.469-32.636,128.469-94.38v-44.898C274.279,155.773,216.647,98.143,145.809,98.143z M223.549,254.881 c0,42.757-34.983,77.74-77.74,77.74h0c-42.757,0-77.74-34.983-77.74-77.74v-28.269c0-2.633,0.135-5.236,0.394-7.804h154.691 c0.259,2.568,0.394,5.171,0.394,7.804V254.881z"/> <path id="XMLID_815_" d="M110.81,237.945c-8.271,0-15,6.729-15,15s6.729,15,15,15s15-6.729,15-15S119.081,237.945,110.81,237.945z"/> <path id="XMLID_816_" d="M180.81,237.945c-8.271,0-15,6.729-15,15s6.729,15,15,15s15-6.729,15-15S189.081,237.945,180.81,237.945z"/> </g> </g>
</svg>